<?xml version="1.0" encoding="UTF-8" standalone="no"?>
<svg
   version="1.1"
   viewBox="0.0 0.0 585.0 545.8057742782153"
   fill="none"
   stroke="none"
   stroke-linecap="square"
   stroke-miterlimit="10"
   id="svg58306"
   sodipodi:docname="Bumpers Big.svg"
   inkscape:version="1.2.1 (9c6d41e410, 2022-07-14)"
   xmlns:inkscape="http://www.inkscape.org/namespaces/inkscape"
   xmlns:sodipodi="http://sodipodi.sourceforge.net/DTD/sodipodi-0.dtd"
   xmlns="http://www.w3.org/2000/svg"
   xmlns:svg="http://www.w3.org/2000/svg">
  <defs
     id="defs58310">
    <clipPath
       clipPathUnits="userSpaceOnUse"
       id="clipPath58466">
      <g
         id="g58470">
        <path
           d="M 0,0 H 585 V 545.8058 H 0 Z"
           clip-rule="nonzero"
           id="path58468" />
      </g>
    </clipPath>
    <clipPath
       clipPathUnits="userSpaceOnUse"
       id="clipPath58472">
      <g
         id="g58476">
        <path
           d="M 0,0 H 585 V 545.8058 H 0 Z"
           clip-rule="nonzero"
           id="path58474" />
      </g>
    </clipPath>
    <clipPath
       clipPathUnits="userSpaceOnUse"
       id="clipPath58478">
      <g
         id="g58482">
        <path
           d="M 0,0 H 585 V 545.8058 H 0 Z"
           clip-rule="nonzero"
           id="path58480" />
      </g>
    </clipPath>
    <clipPath
       clipPathUnits="userSpaceOnUse"
       id="clipPath58484">
      <g
         id="g58488">
        <path
           d="M 0,0 H 585 V 545.8058 H 0 Z"
           clip-rule="nonzero"
           id="path58486" />
      </g>
    </clipPath>
    <clipPath
       clipPathUnits="userSpaceOnUse"
       id="clipPath58490">
      <g
         id="g58494">
        <path
           d="M 0,0 H 585 V 545.8058 H 0 Z"
           clip-rule="nonzero"
           id="path58492" />
      </g>
    </clipPath>
    <clipPath
       clipPathUnits="userSpaceOnUse"
       id="clipPath58496">
      <g
         id="g58500">
        <path
           d="M 0,0 H 585 V 545.8058 H 0 Z"
           clip-rule="nonzero"
           id="path58498" />
      </g>
    </clipPath>
    <clipPath
       clipPathUnits="userSpaceOnUse"
       id="clipPath58502">
      <g
         id="g58506">
        <path
           d="M 0,0 H 585 V 545.8058 H 0 Z"
           clip-rule="nonzero"
           id="path58504" />
      </g>
    </clipPath>
    <clipPath
       clipPathUnits="userSpaceOnUse"
       id="clipPath58508">
      <g
         id="g58512">
        <path
           d="M 0,0 H 585 V 545.8058 H 0 Z"
           clip-rule="nonzero"
           id="path58510" />
      </g>
    </clipPath>
    <clipPath
       clipPathUnits="userSpaceOnUse"
       id="clipPath58514">
      <g
         id="g58518">
        <path
           d="M 0,0 H 585 V 545.8058 H 0 Z"
           clip-rule="nonzero"
           id="path58516" />
      </g>
    </clipPath>
    <clipPath
       clipPathUnits="userSpaceOnUse"
       id="clipPath58520">
      <g
         id="g58524">
        <path
           d="M 0,0 H 585 V 545.8058 H 0 Z"
           clip-rule="nonzero"
           id="path58522" />
      </g>
    </clipPath>
    <clipPath
       clipPathUnits="userSpaceOnUse"
       id="clipPath58526">
      <g
         id="g58530">
        <path
           d="M 0,0 H 585 V 545.8058 H 0 Z"
           clip-rule="nonzero"
           id="path58528" />
      </g>
    </clipPath>
    <clipPath
       clipPathUnits="userSpaceOnUse"
       id="clipPath58532">
      <g
         id="g58536">
        <path
           d="M 0,0 H 585 V 545.8058 H 0 Z"
           clip-rule="nonzero"
           id="path58534" />
      </g>
    </clipPath>
    <clipPath
       clipPathUnits="userSpaceOnUse"
       id="clipPath58538">
      <g
         id="g58542">
        <path
           d="M 0,0 H 585 V 545.8058 H 0 Z"
           clip-rule="nonzero"
           id="path58540" />
      </g>
    </clipPath>
    <clipPath
       clipPathUnits="userSpaceOnUse"
       id="clipPath58544">
      <g
         id="g58548">
        <path
           d="M 0,0 H 585 V 545.8058 H 0 Z"
           clip-rule="nonzero"
           id="path58546" />
      </g>
    </clipPath>
    <clipPath
       clipPathUnits="userSpaceOnUse"
       id="clipPath58550">
      <g
         id="g58554">
        <path
           d="M 0,0 H 585 V 545.8058 H 0 Z"
           clip-rule="nonzero"
           id="path58552" />
      </g>
    </clipPath>
    <clipPath
       clipPathUnits="userSpaceOnUse"
       id="clipPath58556">
      <g
         id="g58560">
        <path
           d="M 0,0 H 585 V 545.8058 H 0 Z"
           clip-rule="nonzero"
           id="path58558" />
      </g>
    </clipPath>
    <clipPath
       clipPathUnits="userSpaceOnUse"
       id="clipPath58562">
      <g
         id="g58566">
        <path
           d="M 0,0 H 585 V 545.8058 H 0 Z"
           clip-rule="nonzero"
           id="path58564" />
      </g>
    </clipPath>
    <clipPath
       clipPathUnits="userSpaceOnUse"
       id="clipPath58568">
      <g
         id="g58572">
        <path
           d="M 0,0 H 585 V 545.8058 H 0 Z"
           clip-rule="nonzero"
           id="path58570" />
      </g>
    </clipPath>
    <clipPath
       clipPathUnits="userSpaceOnUse"
       id="clipPath58574">
      <g
         id="g58578">
        <path
           d="M 0,0 H 585 V 545.8058 H 0 Z"
           clip-rule="nonzero"
           id="path58576" />
      </g>
    </clipPath>
    <clipPath
       clipPathUnits="userSpaceOnUse"
       id="clipPath58580">
      <g
         id="g58584">
        <path
           d="M 0,0 H 585 V 545.8058 H 0 Z"
           clip-rule="nonzero"
           id="path58582" />
      </g>
    </clipPath>
    <clipPath
       clipPathUnits="userSpaceOnUse"
       id="clipPath58586">
      <g
         id="g58590">
        <path
           d="M 0,0 H 585 V 545.8058 H 0 Z"
           clip-rule="nonzero"
           id="path58588" />
      </g>
    </clipPath>
    <clipPath
       clipPathUnits="userSpaceOnUse"
       id="clipPath58592">
      <g
         id="g58596">
        <path
           d="M 0,0 H 585 V 545.8058 H 0 Z"
           clip-rule="nonzero"
           id="path58594" />
      </g>
    </clipPath>
    <clipPath
       clipPathUnits="userSpaceOnUse"
       id="clipPath58598">
      <g
         id="g58602">
        <path
           d="M 0,0 H 585 V 545.8058 H 0 Z"
           clip-rule="nonzero"
           id="path58600" />
      </g>
    </clipPath>
    <clipPath
       clipPathUnits="userSpaceOnUse"
       id="clipPath58604">
      <g
         id="g58608">
        <path
           d="M 0,0 H 585 V 545.8058 H 0 Z"
           clip-rule="nonzero"
           id="path58606" />
      </g>
    </clipPath>
    <clipPath
       clipPathUnits="userSpaceOnUse"
       id="clipPath58610">
      <g
         id="g58614">
        <path
           d="M 0,0 H 585 V 545.8058 H 0 Z"
           clip-rule="nonzero"
           id="path58612" />
      </g>
    </clipPath>
    <clipPath
       clipPathUnits="userSpaceOnUse"
       id="clipPath58616">
      <g
         id="g58620">
        <path
           d="M 0,0 H 585 V 545.8058 H 0 Z"
           clip-rule="nonzero"
           id="path58618" />
      </g>
    </clipPath>
    <clipPath
       clipPathUnits="userSpaceOnUse"
       id="clipPath58622">
      <g
         id="g58626">
        <path
           d="M 0,0 H 585 V 545.8058 H 0 Z"
           clip-rule="nonzero"
           id="path58624" />
      </g>
    </clipPath>
    <clipPath
       clipPathUnits="userSpaceOnUse"
       id="clipPath58628">
      <g
         id="g58632">
        <path
           d="M 0,0 H 585 V 545.8058 H 0 Z"
           clip-rule="nonzero"
           id="path58630" />
      </g>
    </clipPath>
    <clipPath
       clipPathUnits="userSpaceOnUse"
       id="clipPath58634">
      <g
         id="g58638">
        <path
           d="M 0,0 H 585 V 545.8058 H 0 Z"
           clip-rule="nonzero"
           id="path58636" />
      </g>
    </clipPath>
    <clipPath
       clipPathUnits="userSpaceOnUse"
       id="clipPath58640">
      <g
         id="g58644">
        <path
           d="M 0,0 H 585 V 545.8058 H 0 Z"
           clip-rule="nonzero"
           id="path58642" />
      </g>
    </clipPath>
    <clipPath
       clipPathUnits="userSpaceOnUse"
       id="clipPath58646">
      <g
         id="g58650">
        <path
           d="M 0,0 H 585 V 545.8058 H 0 Z"
           clip-rule="nonzero"
           id="path58648" />
      </g>
    </clipPath>
    <clipPath
       clipPathUnits="userSpaceOnUse"
       id="clipPath58652">
      <g
         id="g58656">
        <path
           d="M 0,0 H 585 V 545.8058 H 0 Z"
           clip-rule="nonzero"
           id="path58654" />
      </g>
    </clipPath>
    <clipPath
       clipPathUnits="userSpaceOnUse"
       id="clipPath58658">
      <g
         id="g58662">
        <path
           d="M 0,0 H 585 V 545.8058 H 0 Z"
           clip-rule="nonzero"
           id="path58660" />
      </g>
    </clipPath>
  </defs>
  <sodipodi:namedview
     id="namedview58308"
     pagecolor="#ffffff"
     bordercolor="#000000"
     borderopacity="0.25"
     inkscape:showpageshadow="2"
     inkscape:pageopacity="0.0"
     inkscape:pagecheckerboard="0"
     inkscape:deskcolor="#d1d1d1"
     showgrid="false"
     inkscape:zoom="0.74568649"
     inkscape:cx="213.89686"
     inkscape:cy="321.18055"
     inkscape:window-width="1920"
     inkscape:window-height="1001"
     inkscape:window-x="-9"
     inkscape:window-y="-9"
     inkscape:window-maximized="1"
     inkscape:current-layer="svg58306" />
  <path
     fill="#000000"
     fill-opacity="0"
     d="M 0,0 H 585 V 545.8058 H 0 Z"
     fill-rule="evenodd"
     id="path58238"
     clip-path="url(#clipPath58658)" />
  <path
     fill="#fef6dd"
     d="m 0,120.48819 v 0 C 0,53.9444 53.9444,0 120.48819,0 v 0 c 31.95546,0 62.6021,12.694255 85.19801,35.290173 22.59592,22.59592 35.29018,53.242565 35.29018,85.198007 v 0 c 0,66.54379 -53.9444,120.48819 -120.48819,120.48819 v 0 C 53.944396,240.97637 -4e-6,187.03198 -4e-6,120.48818 Z"
     fill-rule="evenodd"
     id="path58240"
     clip-path="url(#clipPath58652)" />
  <path
     fill="#a0c5c6"
     d="M 0,120.48819 45.65357,105.60275 9.171564,74.379769 57.046739,78.098 35.289789,35.289788 78.098001,57.046738 74.37977,9.1715632 105.60275,45.653569 120.48819,-7.9999998e-7 135.37363,45.653569 166.5966,9.1715632 162.87837,57.046738 205.6866,35.289788 183.92964,78.098 l 47.87517,-3.718231 -36.48199,31.222981 45.65356,14.88544 -45.65356,14.88544 36.48199,31.22297 -47.87517,-3.71823 21.75696,42.80823 -42.80823,-21.75696 3.71823,47.87517 -31.22297,-36.48199 -14.88544,45.65356 -14.88544,-45.65356 -31.22298,36.48199 3.718231,-47.87517 -42.808212,21.75696 21.75695,-42.80823 -47.875175,3.71823 36.482006,-31.22297 z"
     fill-rule="evenodd"
     id="path58242"
     clip-path="url(#clipPath58646)" />
  <path
     fill="#fef6dd"
     d="m 319.38846,120.48819 v 0 C 319.38846,53.9444 373.33286,0 439.87665,0 v 0 c 31.95544,0 62.60208,12.694255 85.198,35.290173 22.59595,22.59592 35.29016,53.242565 35.29016,85.198007 v 0 c 0,66.54379 -53.94437,120.48819 -120.48816,120.48819 v 0 c -66.54379,0 -120.48819,-53.94439 -120.48819,-120.48819 z"
     fill-rule="evenodd"
     id="path58244"
     clip-path="url(#clipPath58640)" />
  <path
     fill="#0a5c9f"
     d="M 319.38846,120.48819 359.18772,104.43826 328.56,74.379768 371.47217,74.781814 354.67822,35.289787 394.17026,52.083706 393.76822,9.1715622 423.82672,39.799248 439.87665,2.0000001e-7 455.92658,39.799248 485.98505,9.1715622 l -0.40204,42.9121438 39.49206,-16.793919 -16.79394,39.492027 42.91217,-0.402046 -30.62775,30.058492 39.79926,16.04993 -39.79926,16.04993 30.62775,30.05848 -42.91217,-0.40203 16.79394,39.49203 -39.49206,-16.79393 0.40204,42.91214 -30.05847,-30.62769 -16.04993,39.79926 -16.04993,-39.79926 -30.0585,30.62769 0.40204,-42.91214 -39.49204,16.79393 16.79395,-39.49203 -42.91217,0.40203 30.62771,-30.05848 z"
     fill-rule="evenodd"
     id="path58246"
     clip-path="url(#clipPath58634)" />
  <path
     fill="#0a5c9f"
     d="m 378.8058,120.48819 v 0 c 0,-32.171677 27.34235,-58.25197 61.07086,-58.25197 v 0 c 16.19699,0 31.73062,6.137245 43.18362,17.061607 11.45301,10.924362 17.88724,25.740973 17.88724,41.190363 v 0 c 0,32.17167 -27.34234,58.25197 -61.07086,58.25197 v 0 c -33.72851,0 -61.07086,-26.08029 -61.07086,-58.25197 z"
     fill-rule="evenodd"
     id="path58248"
     clip-path="url(#clipPath58628)" />
  <path
     stroke="#fef6dd"
     stroke-width="4"
     stroke-linejoin="round"
     stroke-linecap="butt"
     d="m 378.8058,120.48819 v 0 c 0,-32.171677 27.34235,-58.25197 61.07086,-58.25197 v 0 c 16.19699,0 31.73062,6.137245 43.18362,17.061607 11.45301,10.924362 17.88724,25.740973 17.88724,41.190363 v 0 c 0,32.17167 -27.34234,58.25197 -61.07086,58.25197 v 0 c -33.72851,0 -61.07086,-26.08029 -61.07086,-58.25197 z"
     fill-rule="evenodd"
     id="path58250"
     clip-path="url(#clipPath58622)" />
  <path
     fill="#000000"
     fill-opacity="0"
     d="m 424.4704,85.17819 h 30.8125 v 77.90625 h -30.8125 z"
     fill-rule="nonzero"
     id="path58252"
     clip-path="url(#clipPath58616)" />
  <path
     fill="#fef6dd"
     d="m 433.31415,105.99069 -0.32813,0.10938 q -1.8125,0.51562 -2.65625,0.95312 -2.03125,1.10938 -3.20312,1.0625 -2.73438,-0.0625 -2.53125,-2.57812 0.125,-2.125 3.09375,-2.8125 1.125,-0.3125 2.26562,-0.64063 l 21.98438,-6.609375 V 143.42819 H 433.2829 Z"
     fill-rule="nonzero"
     id="path58254"
     clip-path="url(#clipPath58610)" />
  <path
     fill="#010000"
     fill-opacity="0"
     d="m 455.2829,85.17819 v 0 77.90625 0 z"
     fill-rule="nonzero"
     id="path58256"
     clip-path="url(#clipPath58604)" />
  <path
     fill="#fef6dd"
     d="m 424.4704,147.5882 h 30.8125 v 5.75999 h -30.8125 z"
     fill-rule="nonzero"
     id="path58258"
     clip-path="url(#clipPath58598)" />
  <path
     fill="#a0c5c6"
     d="m 59.417324,120.48819 v 0 c 0,-32.171677 27.342358,-58.25197 61.070866,-58.25197 v 0 c 16.19701,0 31.73062,6.137245 43.18362,17.061607 11.45301,10.924362 17.88724,25.740973 17.88724,41.190363 v 0 c 0,32.17167 -27.34236,58.25197 -61.07086,58.25197 v 0 c -33.728506,0 -61.070864,-26.08029 -61.070864,-58.25197 z"
     fill-rule="evenodd"
     id="path58260"
     clip-path="url(#clipPath58592)" />
  <path
     stroke="#fef6dd"
     stroke-width="4"
     stroke-linejoin="round"
     stroke-linecap="butt"
     d="m 59.417324,120.48819 v 0 c 0,-32.171677 27.342358,-58.25197 61.070866,-58.25197 v 0 c 16.19701,0 31.73062,6.137245 43.18362,17.061607 11.45301,10.924362 17.88724,25.740973 17.88724,41.190363 v 0 c 0,32.17167 -27.34236,58.25197 -61.07086,58.25197 v 0 c -33.728506,0 -61.070864,-26.08029 -61.070864,-58.25197 z"
     fill-rule="evenodd"
     id="path58262"
     clip-path="url(#clipPath58586)" />
  <path
     fill="#000000"
     fill-opacity="0"
     d="m 105.08194,85.17819 h 30.8125 v 77.90625 h -30.8125 z"
     fill-rule="nonzero"
     id="path58264"
     clip-path="url(#clipPath58580)" />
  <path
     fill="#fef6dd"
     d="m 113.92569,105.99069 -0.32812,0.10938 q -1.8125,0.51562 -2.65625,0.95312 -2.03125,1.10938 -3.20313,1.0625 -2.73437,-0.0625 -2.53125,-2.57812 0.125,-2.125 3.09375,-2.8125 1.125,-0.3125 2.26563,-0.64063 l 21.98437,-6.609375 v 47.953125 h -18.65625 z"
     fill-rule="nonzero"
     id="path58266"
     clip-path="url(#clipPath58574)" />
  <path
     fill="#000000"
     fill-opacity="0"
     d="m 135.89444,85.17819 v 0 77.90625 0 z"
     fill-rule="nonzero"
     id="path58268"
     clip-path="url(#clipPath58568)" />
  <path
     fill="#fef6dd"
     d="m 105.08194,147.5882 h 30.8125 v 5.75999 h -30.8125 z"
     fill-rule="nonzero"
     id="path58270"
     clip-path="url(#clipPath58562)" />
  <path
     fill="#fef6dd"
     d="m 0,400.6483 v 0 C 0,334.10451 53.9444,280.16011 120.48819,280.16011 v 0 c 31.95546,0 62.6021,12.69428 85.19801,35.29019 22.59592,22.59592 35.29018,53.24255 35.29018,85.198 v 0 c 0,66.54379 -53.9444,120.48819 -120.48819,120.48819 v 0 C 53.944396,521.13649 -4e-6,467.19209 -4e-6,400.6483 Z"
     fill-rule="evenodd"
     id="path58272"
     clip-path="url(#clipPath58556)"
     inkscape:export-filename="BigBumper6_a.png"
     inkscape:export-xdpi="96"
     inkscape:export-ydpi="96" />
  <path
     fill="#ed7275"
     d="M 0,400.6483 41.465496,384.92982 9.171562,354.5399 l 44.324715,1.34589 -18.20649,-40.43588 40.435875,18.20648 -1.345894,-44.32471 30.389932,32.29395 15.71849,-41.46552 15.71849,41.46552 30.38992,-32.29395 -1.34588,44.32471 40.43588,-18.20648 -18.2065,40.43588 44.32471,-1.34589 -32.29393,30.38992 41.4655,15.71848 -41.4655,15.71851 32.29393,30.38992 -44.32471,-1.34589 18.2065,40.43589 -40.43588,-18.20652 1.34588,44.32474 -30.38992,-32.29394 -15.71849,41.46548 -15.71849,-41.46548 -30.389932,32.29394 1.345894,-44.32474 -40.435875,18.20652 18.20649,-40.43589 -44.324715,1.34589 32.293934,-30.38992 z"
     fill-rule="evenodd"
     id="path58274"
     clip-path="url(#clipPath58550)" />
  <path
     fill="#fef6dd"
     d="m 319.38846,400.6483 v 0 c 0,-66.54379 53.9444,-120.48819 120.48819,-120.48819 v 0 c 31.95544,0 62.60208,12.69428 85.198,35.29019 22.59595,22.59592 35.29016,53.24255 35.29016,85.198 v 0 c 0,66.54379 -53.94437,120.48819 -120.48816,120.48819 v 0 c -66.54379,0 -120.48819,-53.9444 -120.48819,-120.48819 z"
     fill-rule="evenodd"
     id="path58276"
     clip-path="url(#clipPath58544)" />
  <path
     fill="#e1202d"
     d="M 319.38846,400.6483 364.36844,385.62889 328.56,354.5399 l 47.30414,3.33667 -21.18591,-42.42667 42.42666,21.18592 -3.33667,-47.30414 31.08899,35.80841 15.01944,-44.97998 15.01941,44.97998 31.08899,-35.80841 -3.33667,47.30414 42.4267,-21.18592 -21.18595,42.42667 47.30417,-3.33667 -35.80846,31.08899 44.97998,15.01941 -44.97998,15.01944 35.80846,31.08899 -47.30417,-3.33667 21.18595,42.42667 -42.4267,-21.18592 3.33667,47.30414 -31.08899,-35.80844 -15.01941,44.97998 -15.01944,-44.97998 -31.08899,35.80844 3.33667,-47.30414 -42.42666,21.18592 21.18591,-42.42667 -47.30414,3.33667 35.80844,-31.08899 z"
     fill-rule="evenodd"
     id="path58278"
     clip-path="url(#clipPath58538)" />
  <path
     fill="#e1202d"
     d="m 378.8058,400.6483 v 0 c 0,-32.17166 27.34235,-58.25195 61.07086,-58.25195 v 0 c 16.19699,0 31.73062,6.13723 43.18362,17.06161 11.45301,10.92435 17.88724,25.74097 17.88724,41.19034 v 0 c 0,32.17169 -27.34234,58.25199 -61.07086,58.25199 v 0 c -33.72851,0 -61.07086,-26.0803 -61.07086,-58.25199 z"
     fill-rule="evenodd"
     id="path58280"
     clip-path="url(#clipPath58532)" />
  <path
     stroke="#fef6dd"
     stroke-width="4"
     stroke-linejoin="round"
     stroke-linecap="butt"
     d="m 378.8058,400.6483 v 0 c 0,-32.17166 27.34235,-58.25195 61.07086,-58.25195 v 0 c 16.19699,0 31.73062,6.13723 43.18362,17.06161 11.45301,10.92435 17.88724,25.74097 17.88724,41.19034 v 0 c 0,32.17169 -27.34234,58.25199 -61.07086,58.25199 v 0 c -33.72851,0 -61.07086,-26.0803 -61.07086,-58.25199 z"
     fill-rule="evenodd"
     id="path58282"
     clip-path="url(#clipPath58526)" />
  <path
     fill="#000000"
     fill-opacity="0"
     d="m 412.61102,356.6358 h 54.53125 v 97.38281 h -54.53125 z"
     fill-rule="nonzero"
     id="path58284"
     clip-path="url(#clipPath58520)" />
  <path
     fill="#fef6dd"
     d="m 455.86102,379.80768 q -2.9375,-3.71875 -9.79688,-3.71875 -3.09375,0 -4,0.20312 l -0.375,48.23438 q -0.0625,-0.39063 1.01563,-0.39063 8.4375,0 13.29687,-4.71875 4.5,-4.35937 4.5,-10.96875 0,-5.75 -3,-8.98437 -2.90625,-3.1875 -7.92187,-3.1875 -1.70313,0 -2.28125,0.25 -3.04688,1.10937 -4.73438,0.46875 -1.35937,-0.5625 -1.65625,-2.20313 -0.29687,-1.65625 0.57813,-2.5625 0.875,-0.90625 2.03125,-1.25 2.15625,-0.75 5.90625,-0.75 3.76562,0 6.875,1.09375 3.125,1.07813 5.5,3.40625 5.0625,4.98438 5.0625,14.10938 0,9.8125 -7.35938,15.85937 -6.75,5.5 -16.40625,5.5 -10.89062,0 -17.67187,-6.95312 -7.5,-7.67188 -7.5,-21.82813 0,-14.40625 8.10937,-23.04687 7.71875,-8.21875 19.5625,-8.21875 7.125,0 12.46875,3.03125 4.5,2.64062 4.5,5.8125 0,2.90625 -3.14062,2.90625 -1.54688,0 -2.54688,-1.01563 z"
     fill-rule="nonzero"
     id="path58286"
     clip-path="url(#clipPath58514)" />
  <path
     fill="#010000"
     fill-opacity="0"
     d="m 467.14227,356.6358 v 0 97.38281 0 z"
     fill-rule="nonzero"
     id="path58288"
     clip-path="url(#clipPath58508)" />
  <path
     fill="#fef6dd"
     d="m 412.61102,434.6483 h 54.53125 v 7.20001 h -54.53125 z"
     fill-rule="nonzero"
     id="path58290"
     clip-path="url(#clipPath58502)" />
  <path
     fill="#ed7275"
     d="m 59.417324,400.6483 v 0 c 0,-32.17166 27.342358,-58.25195 61.070866,-58.25195 v 0 c 16.19701,0 31.73062,6.13723 43.18362,17.06161 11.45301,10.92435 17.88724,25.74097 17.88724,41.19034 v 0 c 0,32.17169 -27.34236,58.25199 -61.07086,58.25199 v 0 c -33.728506,0 -61.070864,-26.0803 -61.070864,-58.25199 z"
     fill-rule="evenodd"
     id="path58292"
     clip-path="url(#clipPath58496)" />
  <path
     stroke="#fef6dd"
     stroke-width="4"
     stroke-linejoin="round"
     stroke-linecap="butt"
     d="m 59.417324,400.6483 v 0 c 0,-32.17166 27.342358,-58.25195 61.070866,-58.25195 v 0 c 16.19701,0 31.73062,6.13723 43.18362,17.06161 11.45301,10.92435 17.88724,25.74097 17.88724,41.19034 v 0 c 0,32.17169 -27.34236,58.25199 -61.07086,58.25199 v 0 c -33.728506,0 -61.070864,-26.0803 -61.070864,-58.25199 z"
     fill-rule="evenodd"
     id="path58294"
     clip-path="url(#clipPath58490)" />
  <path
     fill="#000000"
     fill-opacity="0"
     d="m 93.222565,356.6358 h 54.531245 v 97.38281 H 93.222565 Z"
     fill-rule="nonzero"
     id="path58296"
     clip-path="url(#clipPath58484)" />
  <path
     fill="#fef6dd"
     d="m 136.47256,379.80768 q -2.9375,-3.71875 -9.79688,-3.71875 -3.09375,0 -4,0.20312 l -0.375,48.23438 q -0.0625,-0.39063 1.01563,-0.39063 8.4375,0 13.29687,-4.71875 4.5,-4.35937 4.5,-10.96875 0,-5.75 -3,-8.98437 -2.90625,-3.1875 -7.92187,-3.1875 -1.70313,0 -2.28125,0.25 -3.04688,1.10937 -4.73438,0.46875 -1.35937,-0.5625 -1.65625,-2.20313 -0.29687,-1.65625 0.57813,-2.5625 0.875,-0.90625 2.03125,-1.25 2.15625,-0.75 5.90625,-0.75 3.76562,0 6.875,1.09375 3.125,1.07813 5.5,3.40625 5.0625,4.98438 5.0625,14.10938 0,9.8125 -7.35938,15.85937 -6.75,5.5 -16.40625,5.5 -10.89062,0 -17.67187,-6.95312 -7.5,-7.67188 -7.5,-21.82813 0,-14.40625 8.10937,-23.04687 7.71875,-8.21875 19.5625,-8.21875 7.125,0 12.46875,3.03125 4.5,2.64062 4.5,5.8125 0,2.90625 -3.14062,2.90625 -1.54688,0 -2.54688,-1.01563 z"
     fill-rule="nonzero"
     id="path58298"
     clip-path="url(#clipPath58478)" />
  <path
     fill="#010000"
     fill-opacity="0"
     d="m 147.75381,356.6358 v 0 97.38281 0 z"
     fill-rule="nonzero"
     id="path58300"
     clip-path="url(#clipPath58472)" />
  <path
     fill="#fef6dd"
     d="m 93.222565,434.6483 h 54.531245 v 7.20001 H 93.222565 Z"
     fill-rule="nonzero"
     id="path58302"
     clip-path="url(#clipPath58466)" />
</svg>
