<?xml version="1.0" encoding="UTF-8" standalone="no"?>
<!-- Created with Inkscape (http://www.inkscape.org/) -->

<svg
   width="40.542038mm"
   height="68.660133mm"
   viewBox="0 0 40.542038 68.660133"
   version="1.1"
   id="svg22893"
   xml:space="preserve"
   inkscape:version="1.2 (dc2aedaf03, 2022-05-15)"
   sodipodi:docname="RightSlingshot.svg"
   inkscape:export-filename="RightSlingshot.png"
   inkscape:export-xdpi="96"
   inkscape:export-ydpi="96"
   xmlns:inkscape="http://www.inkscape.org/namespaces/inkscape"
   xmlns:sodipodi="http://sodipodi.sourceforge.net/DTD/sodipodi-0.dtd"
   xmlns="http://www.w3.org/2000/svg"
   xmlns:svg="http://www.w3.org/2000/svg"><sodipodi:namedview
     id="namedview22895"
     pagecolor="#ffffff"
     bordercolor="#000000"
     borderopacity="0.25"
     inkscape:showpageshadow="2"
     inkscape:pageopacity="0.0"
     inkscape:pagecheckerboard="0"
     inkscape:deskcolor="#d1d1d1"
     inkscape:document-units="mm"
     showgrid="false"
     inkscape:zoom="1.9779745"
     inkscape:cx="50.809553"
     inkscape:cy="137.26163"
     inkscape:window-width="1920"
     inkscape:window-height="1001"
     inkscape:window-x="-9"
     inkscape:window-y="-9"
     inkscape:window-maximized="1"
     inkscape:current-layer="layer1" /><defs
     id="defs22890" /><g
     inkscape:label="Layer 1"
     inkscape:groupmode="layer"
     id="layer1"
     transform="translate(-76.428433,-48.970517)"><path
       id="path23031"
       style="fill:#e1202d;fill-opacity:1;stroke:none;stroke-width:0.632245"
       d="m 81.441963,48.970613 a 5.0132886,5.0132886 0 0 1 4.56525,2.949446 l 0.003,-6.16e-4 30.321827,58.253587 a 5.0132886,5.0132886 0 0 1 0.15374,0.29575 l 0.0117,0.0228 -0.001,0.001 a 5.0132886,5.0132886 0 0 1 0.47418,2.12457 5.0132886,5.0132886 0 0 1 -5.01289,5.0135 5.0132886,5.0132886 0 0 1 -2.75557,-0.82797 l -0.002,0.001 -0.0198,-0.0148 a 5.0132886,5.0132886 0 0 1 -0.47172,-0.35872 l -29.631537,-22.497173 -6.2e-4,-6.16e-4 a 5.0132886,5.0132886 0 0 1 -2.64814,-4.420158 V 53.984021 a 5.0132886,5.0132886 0 0 1 5.0135,-5.013504 z" /><path
       id="path23029"
       style="fill:#fef6dd;stroke:#ed7275;stroke-width:0.529167"
       d="m 82.480093,54.91241 a 4.1959457,4.1959457 0 0 1 3.82095,2.468584 l 0.003,-5.17e-4 25.350387,48.703483 a 4.1959457,4.1959457 0 0 1 5.2e-4,5.2e-4 4.1959457,4.1959457 0 0 1 0.15606,0.30024 l 0.01,0.0186 -10e-4,0.001 a 4.1959457,4.1959457 0 0 1 0.39688,1.77818 4.1959457,4.1959457 0 0 1 -4.19561,4.19561 4.1959457,4.1959457 0 0 1 -2.30632,-0.69246 l -0.002,0.001 -0.0165,-0.0124 a 4.1959457,4.1959457 0 0 1 -0.39481,-0.30024 l -24.800557,-18.829341 -5.2e-4,-5.17e-4 a 4.1959457,4.1959457 0 0 1 -2.2164,-3.699516 V 59.10802 a 4.1959457,4.1959457 0 0 1 4.19613,-4.19561 z" /><path
       id="path35873"
       style="fill:#bf98ac;fill-opacity:1;stroke:none;stroke-width:0.264583"
       d="m 80.422733,88.844597 a 2.0979728,2.0979729 0 0 0 2.09797,2.097973 2.0979728,2.0979729 0 0 0 2.09797,-2.097973 2.0979728,2.0979729 0 0 0 -2.09797,-2.097973 2.0979728,2.0979729 0 0 0 -2.09797,2.097973 z" /><path
       id="path35875"
       style="fill:#bf98ac;fill-opacity:1;stroke:none;stroke-width:0.264583"
       d="m 80.422723,59.108112 a 2.0979729,2.0979729 0 0 0 2.09798,2.097973 2.0979729,2.0979729 0 0 0 2.09797,-2.097973 2.0979729,2.0979729 0 0 0 -2.09797,-2.097972 2.0979729,2.0979729 0 0 0 -2.09798,2.097972 z" /><path
       id="path35877"
       style="fill:#bf98ac;fill-opacity:1;stroke:none;stroke-width:0.264583"
       d="m 105.96328,108.18243 a 2.0979729,2.0979728 0 0 0 2.09797,2.09797 2.0979729,2.0979728 0 0 0 2.09797,-2.09797 2.0979729,2.0979728 0 0 0 -2.09797,-2.09798 2.0979729,2.0979728 0 0 0 -2.09797,2.09798 z" /></g></svg>
