<?xml version="1.0" encoding="UTF-8" standalone="no"?>
<!-- Created with Inkscape (http://www.inkscape.org/) -->

<svg
   width="768"
   height="512"
   viewBox="0 0 203.2 135.46667"
   version="1.1"
   id="svg5"
   xml:space="preserve"
   sodipodi:docname="BasicDice.svg"
   inkscape:version="1.2 (dc2aedaf03, 2022-05-15)"
   inkscape:export-filename="BasicDice.png"
   inkscape:export-xdpi="96"
   inkscape:export-ydpi="96"
   xmlns:inkscape="http://www.inkscape.org/namespaces/inkscape"
   xmlns:sodipodi="http://sodipodi.sourceforge.net/DTD/sodipodi-0.dtd"
   xmlns="http://www.w3.org/2000/svg"
   xmlns:svg="http://www.w3.org/2000/svg"><sodipodi:namedview
     id="namedview7"
     pagecolor="#ffffff"
     bordercolor="#000000"
     borderopacity="0.25"
     inkscape:showpageshadow="2"
     inkscape:pageopacity="0.0"
     inkscape:pagecheckerboard="0"
     inkscape:deskcolor="#d1d1d1"
     inkscape:document-units="mm"
     showgrid="false"
     inkscape:zoom="0.72515432"
     inkscape:cx="-31.027878"
     inkscape:cy="265.46074"
     inkscape:window-width="1920"
     inkscape:window-height="1001"
     inkscape:window-x="-9"
     inkscape:window-y="-9"
     inkscape:window-maximized="1"
     inkscape:current-layer="layer1" /><defs
     id="defs2" /><g
     inkscape:label="Layer 1"
     inkscape:groupmode="layer"
     id="layer1"><path
       fill="#000000"
       fill-opacity="0"
       d="M 0.0974746,0.75564851 H 251.65928 V 190.0473 H 0.0974746 Z"
       fill-rule="evenodd"
       id="path12"
       style="stroke:none;stroke-width:0.264583;stroke-linecap:square;stroke-miterlimit:10" /><g
       id="g364"
       transform="matrix(1.0170186,0,0,1.0170186,-1.7290854,-1.1527236)"
       inkscape:export-filename="BasicDice.png"
       inkscape:export-xdpi="96"
       inkscape:export-ydpi="96"><g
         id="g616"
         transform="translate(0.2171005,-0.32891587)"><path
           fill="#fff2cc"
           d="M 3.9141413,11.695778 11.865381,3.7445379 h 46.430856 l 7.951237,7.9512401 v 46.430855 l -7.951237,7.951242 H 11.865381 L 3.9141413,58.126633 Z"
           fill-rule="evenodd"
           id="path14"
           style="fill:#80e5ff;stroke:none;stroke-width:0.264583;stroke-linecap:square;stroke-miterlimit:10" /><path
           fill="#000000"
           d="m 28.084975,34.911203 v 0 c 0,-3.863692 3.13214,-6.995832 6.995832,-6.995832 v 0 c 1.855412,0 3.634827,0.73706 4.946801,2.049034 1.311976,1.31197 2.049033,3.091391 2.049033,4.946798 v 0 c 0,3.863694 -3.13214,6.995834 -6.995834,6.995834 v 0 c -3.863692,0 -6.995832,-3.13214 -6.995832,-6.995834 z"
           fill-rule="evenodd"
           id="path16"
           style="stroke:none;stroke-width:0.264583;stroke-linecap:square;stroke-miterlimit:10" /></g></g><g
       id="g369"
       transform="matrix(1.0170186,0,0,1.0170186,-1.7290854,-1.1527236)"><path
         fill="#fff2cc"
         d="m 70.433334,11.366862 7.951235,-7.95124 h 46.430851 l 7.95124,7.95124 v 46.430855 l -7.95124,7.951242 H 78.384569 l -7.951235,-7.951242 z"
         fill-rule="evenodd"
         id="path18"
         style="fill:#3771c8;stroke:none;stroke-width:0.264583;stroke-linecap:square;stroke-miterlimit:10" /><path
         fill="#000000"
         d="m 80.612503,48.573953 v 0 c 0,-3.863694 3.13214,-6.995834 6.995835,-6.995834 v 0 c 1.855409,0 3.634822,0.73706 4.946798,2.049031 1.311968,1.311976 2.049028,3.091394 2.049028,4.946803 v 0 c 0,3.863695 -3.132142,6.995835 -6.995826,6.995835 v 0 c -3.863695,0 -6.995835,-3.13214 -6.995835,-6.995835 z"
         fill-rule="evenodd"
         id="path20"
         style="stroke:none;stroke-width:0.264583;stroke-linecap:square;stroke-miterlimit:10" /><path
         fill="#000000"
         d="m 108.59583,20.590623 v 0 c 0,-3.863693 3.13214,-6.995834 6.99583,-6.995834 v 0 c 1.85541,0 3.63483,0.737059 4.9468,2.049032 1.31198,1.311973 2.04904,3.091392 2.04904,4.946802 v 0 c 0,3.863691 -3.13215,6.995832 -6.99584,6.995832 v 0 c -3.86369,0 -6.99583,-3.132141 -6.99583,-6.995832 z"
         fill-rule="evenodd"
         id="path34"
         style="stroke:none;stroke-width:0.264583;stroke-linecap:square;stroke-miterlimit:10" /></g><g
       id="g375"
       transform="matrix(1.0170186,0,0,1.0170186,-1.7290854,-1.1527236)"><path
         fill="#fff2cc"
         d="m 136.73542,11.366862 7.95124,-7.95124 h 46.43086 l 7.95124,7.95124 v 46.430855 l -7.95124,7.951242 h -46.43086 l -7.95124,-7.951242 z"
         fill-rule="evenodd"
         id="path22"
         style="fill:#2ca089;stroke:none;stroke-width:0.264583;stroke-linecap:square;stroke-miterlimit:10" /><path
         fill="#000000"
         d="m 160.90626,34.582287 v 0 c 0,-3.863692 3.13214,-6.995832 6.99582,-6.995832 v 0 c 1.85541,0 3.63482,0.73706 4.94681,2.049034 1.31197,1.31197 2.04903,3.091391 2.04903,4.946798 v 0 c 0,3.863694 -3.13215,6.995834 -6.99584,6.995834 v 0 c -3.86368,0 -6.99582,-3.13214 -6.99582,-6.995834 z"
         fill-rule="evenodd"
         id="path24"
         style="stroke:none;stroke-width:0.264583;stroke-linecap:square;stroke-miterlimit:10" /><path
         fill="#000000"
         d="m 146.91459,48.573953 v 0 c 0,-3.863694 3.13214,-6.995834 6.99582,-6.995834 v 0 c 1.85541,0 3.63483,0.73706 4.94681,2.049031 1.31197,1.311976 2.04904,3.091394 2.04904,4.946803 v 0 c 0,3.863695 -3.13215,6.995835 -6.99585,6.995835 v 0 c -3.86368,0 -6.99582,-3.13214 -6.99582,-6.995835 z"
         fill-rule="evenodd"
         id="path36"
         style="stroke:none;stroke-width:0.264583;stroke-linecap:square;stroke-miterlimit:10" /><path
         fill="#000000"
         d="m 174.89792,20.590623 v 0 c 0,-3.863693 3.13214,-6.995834 6.99583,-6.995834 v 0 c 1.85541,0 3.63482,0.737059 4.94681,2.049032 1.31197,1.311973 2.04902,3.091392 2.04902,4.946802 v 0 c 0,3.863691 -3.13214,6.995832 -6.99583,6.995832 v 0 c -3.86369,0 -6.99583,-3.132141 -6.99583,-6.995832 z"
         fill-rule="evenodd"
         id="path38"
         style="stroke:none;stroke-width:0.264583;stroke-linecap:square;stroke-miterlimit:10" /></g><g
       id="g390"
       transform="matrix(1.0170186,0,0,1.0170186,-1.7290854,-1.1527236)"><path
         fill="#fff2cc"
         d="m 70.433334,77.668953 7.951235,-7.951242 h 46.430851 l 7.95124,7.951242 v 46.430837 l -7.95124,7.95125 H 78.384569 l -7.951235,-7.95125 z"
         fill-rule="evenodd"
         id="path28"
         style="fill:#d4aa00;stroke:none;stroke-width:0.264583;stroke-linecap:square;stroke-miterlimit:10" /><path
         fill="#000000"
         d="m 94.604162,100.88437 v 0 c 0,-3.863684 3.13214,-6.995824 6.995828,-6.995824 v 0 c 1.85541,0 3.63483,0.737061 4.94681,2.049029 1.31197,1.311973 2.04903,3.09139 2.04903,4.946795 v 0 c 0,3.86369 -3.13214,6.99583 -6.99584,6.99583 v 0 c -3.863688,0 -6.995828,-3.13214 -6.995828,-6.99583 z"
         fill-rule="evenodd"
         id="path30"
         style="stroke:none;stroke-width:0.264583;stroke-linecap:square;stroke-miterlimit:10" /><path
         fill="#000000"
         d="m 80.612503,114.87604 v 0 c 0,-3.8637 3.13214,-6.99584 6.995835,-6.99584 v 0 c 1.855409,0 3.634822,0.73706 4.946798,2.04904 1.311968,1.31198 2.049028,3.09139 2.049028,4.9468 v 0 c 0,3.86369 -3.132142,6.99583 -6.995826,6.99583 v 0 c -3.863695,0 -6.995835,-3.13214 -6.995835,-6.99583 z"
         fill-rule="evenodd"
         id="path40"
         style="stroke:none;stroke-width:0.264583;stroke-linecap:square;stroke-miterlimit:10" /><path
         fill="#000000"
         d="m 108.59583,86.892712 v 0 c 0,-3.863695 3.13214,-6.995835 6.99583,-6.995835 v 0 c 1.85541,0 3.63483,0.73706 4.9468,2.049029 1.31198,1.311973 2.04904,3.091397 2.04904,4.946806 v 0 c 0,3.863694 -3.13215,6.995834 -6.99584,6.995834 v 0 c -3.86369,0 -6.99583,-3.13214 -6.99583,-6.995834 z"
         fill-rule="evenodd"
         id="path42"
         style="stroke:none;stroke-width:0.264583;stroke-linecap:square;stroke-miterlimit:10" /><path
         fill="#000000"
         d="m 87.608335,79.896877 v 0 c 3.863687,0 6.995827,3.13214 6.995827,6.995835 v 0 c 0,1.855409 -0.737061,3.634822 -2.049029,4.946798 -1.311973,1.311976 -3.091389,2.049036 -4.946798,2.049036 v 0 c -3.863695,0 -6.995835,-3.132142 -6.995835,-6.995834 v 0 c 0,-3.863695 3.13214,-6.995835 6.995835,-6.995835 z"
         fill-rule="evenodd"
         id="path46"
         style="stroke:none;stroke-width:0.264583;stroke-linecap:square;stroke-miterlimit:10" /><path
         fill="#000000"
         d="m 115.59166,107.8802 v 0 c 3.86369,0 6.99583,3.13214 6.99583,6.99584 v 0 c 0,1.85541 -0.73706,3.63483 -2.04903,4.9468 -1.31197,1.31197 -3.09139,2.04903 -4.9468,2.04903 v 0 c -3.86369,0 -6.99583,-3.13214 -6.99583,-6.99583 v 0 c 0,-3.8637 3.13214,-6.99584 6.99583,-6.99584 z"
         fill-rule="evenodd"
         id="path48"
         style="stroke:none;stroke-width:0.264583;stroke-linecap:square;stroke-miterlimit:10" /></g><g
       id="g382"
       transform="matrix(1.0170186,0,0,1.0170186,-1.7290854,-1.1527236)"><path
         fill="#fff2cc"
         d="m 4.1312418,77.668953 7.9512402,-7.951242 h 46.430855 l 7.951237,7.951242 v 46.430837 l -7.951237,7.95125 H 12.082482 l -7.9512402,-7.95125 z"
         fill-rule="evenodd"
         id="path26"
         style="fill:#71c837;stroke:none;stroke-width:0.264583;stroke-linecap:square;stroke-miterlimit:10" /><path
         fill="#000000"
         d="m 14.310408,114.87604 v 0 c 0,-3.8637 3.13214,-6.99584 6.995833,-6.99584 v 0 c 1.85541,0 3.634828,0.73706 4.946801,2.04904 1.311973,1.31198 2.049031,3.09139 2.049031,4.9468 v 0 c 0,3.86369 -3.132139,6.99583 -6.99583,6.99583 v 0 c -3.863694,0 -6.995834,-3.13214 -6.995834,-6.99583 z"
         fill-rule="evenodd"
         id="path50"
         style="stroke:none;stroke-width:0.264583;stroke-linecap:square;stroke-miterlimit:10" /><path
         fill="#000000"
         d="m 42.293742,86.892712 v 0 c 0,-3.863695 3.13214,-6.995835 6.995829,-6.995835 v 0 c 1.855413,0 3.634833,0.73706 4.946804,2.049029 1.311974,1.311973 2.049031,3.091397 2.049031,4.946806 v 0 c 0,3.863694 -3.13214,6.995834 -6.995835,6.995834 v 0 c -3.863689,0 -6.995829,-3.13214 -6.995829,-6.995834 z"
         fill-rule="evenodd"
         id="path52"
         style="stroke:none;stroke-width:0.264583;stroke-linecap:square;stroke-miterlimit:10" /><path
         fill="#000000"
         d="m 21.306242,79.896877 v 0 c 3.863691,0 6.995831,3.13214 6.995831,6.995835 v 0 c 0,1.855409 -0.737058,3.634822 -2.049031,4.946798 -1.311973,1.311976 -3.091391,2.049036 -4.946801,2.049036 v 0 c -3.863693,0 -6.995834,-3.132142 -6.995834,-6.995834 v 0 c 0,-3.863695 3.132141,-6.995835 6.995835,-6.995835 z"
         fill-rule="evenodd"
         id="path54"
         style="stroke:none;stroke-width:0.264583;stroke-linecap:square;stroke-miterlimit:10" /><path
         fill="#000000"
         d="m 49.289574,107.8802 v 0 c 3.863695,0 6.995835,3.13214 6.995835,6.99584 v 0 c 0,1.85541 -0.73706,3.63483 -2.049031,4.9468 -1.311971,1.31197 -3.091394,2.04903 -4.946804,2.04903 v 0 c -3.863689,0 -6.995829,-3.13214 -6.995829,-6.99583 v 0 c 0,-3.8637 3.13214,-6.99584 6.995829,-6.99584 z"
         fill-rule="evenodd"
         id="path56"
         style="stroke:none;stroke-width:0.264583;stroke-linecap:square;stroke-miterlimit:10" /></g><g
       id="g399"
       transform="matrix(1.0170186,0,0,1.0170186,-1.7290854,-1.1527236)"><path
         fill="#fff2cc"
         d="m 136.73542,77.668953 7.95124,-7.951242 h 46.43086 l 7.95124,7.951242 v 46.430837 l -7.95124,7.95125 h -46.43086 l -7.95124,-7.95125 z"
         fill-rule="evenodd"
         id="path32"
         style="fill:#d45500;stroke:none;stroke-width:0.264583;stroke-linecap:square;stroke-miterlimit:10" /><path
         fill="#000000"
         d="m 146.91459,116.15034 v 0 c 0,-3.86369 3.13214,-6.99583 6.99582,-6.99583 v 0 c 1.85541,0 3.63483,0.73706 4.94681,2.04904 1.31197,1.31196 2.04904,3.09139 2.04904,4.94679 v 0 c 0,3.8637 -3.13215,6.99584 -6.99585,6.99584 v 0 c -3.86368,0 -6.99582,-3.13214 -6.99582,-6.99584 z"
         fill-rule="evenodd"
         id="path58"
         style="stroke:none;stroke-width:0.264583;stroke-linecap:square;stroke-miterlimit:10" /><path
         fill="#000000"
         d="m 174.89792,85.618058 v 0 c 0,-3.863695 3.13214,-6.995835 6.99583,-6.995835 v 0 c 1.85541,0 3.63482,0.73706 4.94681,2.049037 1.31197,1.311968 2.04902,3.091389 2.04902,4.946798 v 0 c 0,3.863694 -3.13214,6.995834 -6.99583,6.995834 v 0 c -3.86369,0 -6.99583,-3.13214 -6.99583,-6.995834 z"
         fill-rule="evenodd"
         id="path60"
         style="stroke:none;stroke-width:0.264583;stroke-linecap:square;stroke-miterlimit:10" /><path
         fill="#000000"
         d="m 153.91041,78.62222 v 0 c 3.86371,0 6.99585,3.132141 6.99585,6.995835 v 0 c 0,1.855409 -0.73707,3.63483 -2.04904,4.946798 -1.31198,1.311976 -3.0914,2.049037 -4.94681,2.049037 v 0 c -3.86368,0 -6.99582,-3.132143 -6.99582,-6.995835 v 0 c 0,-3.863694 3.13214,-6.995835 6.99582,-6.995835 z"
         fill-rule="evenodd"
         id="path62"
         style="stroke:none;stroke-width:0.264583;stroke-linecap:square;stroke-miterlimit:10" /><path
         fill="#000000"
         d="m 181.89375,109.15451 v 0 c 3.86369,0 6.99583,3.13214 6.99583,6.99583 v 0 c 0,1.85541 -0.73705,3.63483 -2.04902,4.9468 -1.31198,1.31198 -3.0914,2.04904 -4.94681,2.04904 v 0 c -3.86368,0 -6.99583,-3.13214 -6.99583,-6.99584 v 0 c 0,-3.86369 3.13215,-6.99583 6.99583,-6.99583 z"
         fill-rule="evenodd"
         id="path64"
         style="stroke:none;stroke-width:0.264583;stroke-linecap:square;stroke-miterlimit:10" /><path
         fill="#000000"
         d="m 174.89792,100.88437 v 0 c 0,-3.863684 3.13214,-6.995824 6.99583,-6.995824 v 0 c 1.85541,0 3.63482,0.737061 4.94681,2.049029 1.31197,1.311973 2.04902,3.09139 2.04902,4.946795 v 0 c 0,3.86369 -3.13214,6.99583 -6.99583,6.99583 v 0 c -3.86369,0 -6.99583,-3.13214 -6.99583,-6.99583 z"
         fill-rule="evenodd"
         id="path66"
         style="stroke:none;stroke-width:0.264583;stroke-linecap:square;stroke-miterlimit:10" /><path
         fill="#000000"
         d="m 153.91041,93.888546 v 0 c 3.86371,0 6.99585,3.13214 6.99585,6.995824 v 0 c 0,1.85541 -0.73707,3.63483 -2.04904,4.9468 -1.31198,1.31197 -3.0914,2.04903 -4.94681,2.04903 v 0 c -3.86368,0 -6.99582,-3.13214 -6.99582,-6.99583 v 0 c 0,-3.863684 3.13214,-6.995824 6.99582,-6.995824 z"
         fill-rule="evenodd"
         id="path68"
         style="stroke:none;stroke-width:0.264583;stroke-linecap:square;stroke-miterlimit:10" /></g></g></svg>
