<svg version="1.1" viewBox="0.0 0.0 960.0 720.0" fill="none" stroke="none" stroke-linecap="square" stroke-miterlimit="10" xmlns:xlink="http://www.w3.org/1999/xlink" xmlns="http://www.w3.org/2000/svg"><clipPath id="p.0"><path d="m0 0l960.0 0l0 720.0l-960.0 0l0 -720.0z" clip-rule="nonzero"/></clipPath><g clip-path="url(#p.0)"><path fill="#000000" fill-opacity="0.0" d="m0 0l960.0 0l0 720.0l-960.0 0z" fill-rule="evenodd"/><path fill="#fff2cc" d="m14.425197 41.34852l30.05193 -30.05193l175.4867 0l30.051926 30.05193l0 175.4867l-30.051926 30.05194l-175.4867 0l-30.05193 -30.05194z" fill-rule="evenodd"/><path fill="#000000" d="m105.779526 129.09186l0 0c0 -14.602928 11.838013 -26.44094 26.440948 -26.44094l0 0c7.0125732 0 13.73793 2.785736 18.696564 7.744377c4.9586487 4.9586334 7.744385 11.683998 7.744385 18.696564l0 0c0 14.602936 -11.838013 26.440948 -26.440948 26.440948l0 0c-14.602936 0 -26.440948 -11.838013 -26.440948 -26.440948z" fill-rule="evenodd"/><path fill="#fff2cc" d="m272.85565 41.34852l30.05191 -30.05193l175.4867 0l30.05194 30.05193l0 175.4867l-30.05194 30.05194l-175.4867 0l-30.05191 -30.05194z" fill-rule="evenodd"/><path fill="#000000" d="m311.3281 181.97375l0 0c0 -14.602936 11.838013 -26.440948 26.440948 -26.440948l0 0c7.0125732 0 13.737915 2.785736 18.696564 7.7443695c4.958618 4.9586487 7.7443542 11.684006 7.7443542 18.696579l0 0c0 14.602936 -11.838013 26.440948 -26.440918 26.440948l0 0c-14.602936 0 -26.440948 -11.838013 -26.440948 -26.440948z" fill-rule="evenodd"/><path fill="#fff2cc" d="m531.2861 41.34852l30.05194 -30.05193l175.4867 0l30.05194 30.05193l0 175.4867l-30.05194 30.05194l-175.4867 0l-30.05194 -30.05194z" fill-rule="evenodd"/><path fill="#000000" d="m622.64044 129.09186l0 0c0 -14.602928 11.838013 -26.44094 26.440918 -26.44094l0 0c7.0125732 0 13.737915 2.785736 18.696594 7.744377c4.958618 4.9586334 7.744385 11.683998 7.744385 18.696564l0 0c0 14.602936 -11.838074 26.440948 -26.440979 26.440948l0 0c-14.602905 0 -26.440918 -11.838013 -26.440918 -26.440948z" fill-rule="evenodd"/><path fill="#fff2cc" d="m14.425197 300.9837l30.05193 -30.05194l175.4867 0l30.051926 30.05194l0 175.48666l-30.051926 30.05194l-175.4867 0l-30.05193 -30.05194z" fill-rule="evenodd"/><path fill="#fff2cc" d="m272.85565 300.9837l30.05191 -30.05194l175.4867 0l30.05194 30.05194l0 175.48666l-30.05194 30.05194l-175.4867 0l-30.05191 -30.05194z" fill-rule="evenodd"/><path fill="#000000" d="m364.20996 388.72702l0 0c0 -14.602905 11.838013 -26.440918 26.440948 -26.440918l0 0c7.0125732 0 13.737946 2.785736 18.696594 7.7443542c4.958618 4.9586487 7.7443542 11.6839905 7.7443542 18.696564l0 0c0 14.602936 -11.838013 26.440948 -26.440948 26.440948l0 0c-14.602936 0 -26.440948 -11.838013 -26.440948 -26.440948z" fill-rule="evenodd"/><path fill="#fff2cc" d="m531.2861 300.9837l30.05194 -30.05194l175.4867 0l30.05194 30.05194l0 175.48666l-30.05194 30.05194l-175.4867 0l-30.05194 -30.05194z" fill-rule="evenodd"/><path fill="#000000" d="m417.09186 76.20998l0 0c0 -14.602932 11.838013 -26.440948 26.440948 -26.440948l0 0c7.0125732 0 13.737946 2.785736 18.696564 7.7443733c4.9586487 4.958641 7.744385 11.684002 7.744385 18.696575l0 0c0 14.602928 -11.838013 26.44094 -26.440948 26.44094l0 0c-14.602936 0 -26.440948 -11.838013 -26.440948 -26.44094z" fill-rule="evenodd"/><path fill="#000000" d="m569.75854 181.97375l0 0c0 -14.602936 11.838013 -26.440948 26.440918 -26.440948l0 0c7.0125732 0 13.737915 2.785736 18.696594 7.7443695c4.958618 4.9586487 7.744385 11.684006 7.744385 18.696579l0 0c0 14.602936 -11.838013 26.440948 -26.440979 26.440948l0 0c-14.602905 0 -26.440918 -11.838013 -26.440918 -26.440948z" fill-rule="evenodd"/><path fill="#000000" d="m675.52234 76.20998l0 0c0 -14.602932 11.838013 -26.440948 26.440918 -26.440948l0 0c7.0125732 0 13.737915 2.785736 18.696594 7.7443733c4.958618 4.958641 7.7443237 11.684002 7.7443237 18.696575l0 0c0 14.602928 -11.838013 26.44094 -26.440918 26.44094l0 0c-14.602905 0 -26.440918 -11.838013 -26.440918 -26.44094z" fill-rule="evenodd"/><path fill="#000000" d="m311.3281 441.60892l0 0c0 -14.602936 11.838013 -26.440948 26.440948 -26.440948l0 0c7.0125732 0 13.737915 2.785736 18.696564 7.744385c4.958618 4.9586487 7.7443542 11.6839905 7.7443542 18.696564l0 0c0 14.602936 -11.838013 26.440948 -26.440918 26.440948l0 0c-14.602936 0 -26.440948 -11.838013 -26.440948 -26.440948z" fill-rule="evenodd"/><path fill="#000000" d="m417.09186 335.84515l0 0c0 -14.602936 11.838013 -26.440948 26.440948 -26.440948l0 0c7.0125732 0 13.737946 2.785736 18.696564 7.7443542c4.9586487 4.9586487 7.744385 11.684021 7.744385 18.696594l0 0c0 14.602936 -11.838013 26.440948 -26.440948 26.440948l0 0c-14.602936 0 -26.440948 -11.838013 -26.440948 -26.440948z" fill-rule="evenodd"/><path fill="#fff2cc" d="m14.425197 569.8328l0 0c0 -21.685974 17.579933 -39.26587 39.265877 -39.26587l157.0588 0l0 0c10.413956 0 20.401382 4.136902 27.765167 11.500671c7.3637695 7.3637695 11.500702 17.351196 11.500702 27.765198l0 157.05878c0 21.685974 -17.579926 39.26587 -39.26587 39.26587l-157.0588 0c-21.685944 0 -39.265877 -17.579895 -39.265877 -39.26587z" fill-rule="evenodd"/><path fill="#000000" d="m337.76904 309.4042l0 0c14.602905 0 26.440918 11.838013 26.440918 26.440948l0 0c0 7.0125732 -2.785736 13.737915 -7.7443542 18.696564c-4.9586487 4.9586487 -11.6839905 7.744385 -18.696564 7.744385l0 0c-14.602936 0 -26.440948 -11.838013 -26.440948 -26.440948l0 0c0 -14.602936 11.838013 -26.440948 26.440948 -26.440948z" fill-rule="evenodd"/><path fill="#000000" d="m443.5328 415.16797l0 0c14.602936 0 26.440948 11.838013 26.440948 26.440948l0 0c0 7.0125732 -2.785736 13.737946 -7.744385 18.696564c-4.958618 4.9586487 -11.6839905 7.744385 -18.696564 7.744385l0 0c-14.602936 0 -26.440948 -11.838013 -26.440948 -26.440948l0 0c0 -14.602936 11.838013 -26.440948 26.440948 -26.440948z" fill-rule="evenodd"/><path fill="#000000" d="m52.897636 441.60892l0 0c0 -14.602936 11.838013 -26.440948 26.440948 -26.440948l0 0c7.0125732 0 13.73793 2.785736 18.696571 7.744385c4.9586334 4.9586487 7.7443695 11.6839905 7.7443695 18.696564l0 0c0 14.602936 -11.838013 26.440948 -26.44094 26.440948l0 0c-14.602936 0 -26.440948 -11.838013 -26.440948 -26.440948z" fill-rule="evenodd"/><path fill="#000000" d="m158.66142 335.84515l0 0c0 -14.602936 11.838013 -26.440948 26.440933 -26.440948l0 0c7.0125732 0 13.737946 2.785736 18.696579 7.7443542c4.9586334 4.9586487 7.7443695 11.684021 7.7443695 18.696594l0 0c0 14.602936 -11.838013 26.440948 -26.440948 26.440948l0 0c-14.602921 0 -26.440933 -11.838013 -26.440933 -26.440948z" fill-rule="evenodd"/><path fill="#000000" d="m79.338585 309.4042l0 0c14.602928 0 26.44094 11.838013 26.44094 26.440948l0 0c0 7.0125732 -2.785736 13.737915 -7.7443695 18.696564c-4.958641 4.9586487 -11.683998 7.744385 -18.696571 7.744385l0 0c-14.602936 0 -26.440948 -11.838013 -26.440948 -26.440948l0 0c0 -14.602936 11.838013 -26.440948 26.440948 -26.440948z" fill-rule="evenodd"/><path fill="#000000" d="m185.10236 415.16797l0 0c14.602936 0 26.440948 11.838013 26.440948 26.440948l0 0c0 7.0125732 -2.785736 13.737946 -7.7443695 18.696564c-4.9586334 4.9586487 -11.684006 7.744385 -18.696579 7.744385l0 0c-14.602921 0 -26.440933 -11.838013 -26.440933 -26.440948l0 0c0 -14.602936 11.838013 -26.440948 26.440933 -26.440948z" fill-rule="evenodd"/><path fill="#000000" d="m569.75854 446.4252l0 0c0 -14.602936 11.838013 -26.440948 26.440918 -26.440948l0 0c7.0125732 0 13.737915 2.785736 18.696594 7.744385c4.958618 4.958618 7.744385 11.6839905 7.744385 18.696564l0 0c0 14.602936 -11.838013 26.440948 -26.440979 26.440948l0 0c-14.602905 0 -26.440918 -11.838013 -26.440918 -26.440948z" fill-rule="evenodd"/><path fill="#000000" d="m675.52234 331.02756l0 0c0 -14.602936 11.838013 -26.440948 26.440918 -26.440948l0 0c7.0125732 0 13.737915 2.785736 18.696594 7.744385c4.958618 4.958618 7.7443237 11.6839905 7.7443237 18.696564l0 0c0 14.602936 -11.838013 26.440948 -26.440918 26.440948l0 0c-14.602905 0 -26.440918 -11.838013 -26.440918 -26.440948z" fill-rule="evenodd"/><path fill="#000000" d="m596.19946 304.5866l0 0c14.602966 0 26.440979 11.838013 26.440979 26.440948l0 0c0 7.0125732 -2.7857666 13.737946 -7.744385 18.696564c-4.958679 4.9586487 -11.684021 7.744385 -18.696594 7.744385l0 0c-14.602905 0 -26.440918 -11.838013 -26.440918 -26.440948l0 0c0 -14.602936 11.838013 -26.440948 26.440918 -26.440948z" fill-rule="evenodd"/><path fill="#000000" d="m701.96326 419.98425l0 0c14.602905 0 26.440918 11.838013 26.440918 26.440948l0 0c0 7.0125732 -2.7857056 13.737915 -7.7443237 18.696564c-4.958679 4.9586487 -11.684021 7.744385 -18.696594 7.744385l0 0c-14.602905 0 -26.440918 -11.838013 -26.440918 -26.440948l0 0c0 -14.602936 11.838013 -26.440948 26.440918 -26.440948z" fill-rule="evenodd"/><path fill="#000000" d="m675.52234 388.72702l0 0c0 -14.602905 11.838013 -26.440918 26.440918 -26.440918l0 0c7.0125732 0 13.737915 2.785736 18.696594 7.7443542c4.958618 4.9586487 7.7443237 11.6839905 7.7443237 18.696564l0 0c0 14.602936 -11.838013 26.440948 -26.440918 26.440948l0 0c-14.602905 0 -26.440918 -11.838013 -26.440918 -26.440948z" fill-rule="evenodd"/><path fill="#000000" d="m596.19946 362.2861l0 0c14.602966 0 26.440979 11.838013 26.440979 26.440918l0 0c0 7.0125732 -2.7857666 13.737946 -7.744385 18.696594c-4.958679 4.958618 -11.684021 7.7443542 -18.696594 7.7443542l0 0c-14.602905 0 -26.440918 -11.838013 -26.440918 -26.440948l0 0c0 -14.602905 11.838013 -26.440918 26.440918 -26.440918z" fill-rule="evenodd"/></g></svg>