<?xml version="1.0" encoding="UTF-8" standalone="no"?>
<!-- Created with Inkscape (http://www.inkscape.org/) -->

<svg
   width="77.291672mm"
   height="77.291664mm"
   viewBox="0 0 77.291672 77.291664"
   version="1.1"
   id="svg5"
   xml:space="preserve"
   inkscape:version="1.2 (dc2aedaf03, 2022-05-15)"
   sodipodi:docname="Lights.svg"
   inkscape:export-filename="LightsOff.png"
   inkscape:export-xdpi="96"
   inkscape:export-ydpi="96"
   xmlns:inkscape="http://www.inkscape.org/namespaces/inkscape"
   xmlns:sodipodi="http://sodipodi.sourceforge.net/DTD/sodipodi-0.dtd"
   xmlns="http://www.w3.org/2000/svg"
   xmlns:svg="http://www.w3.org/2000/svg"><sodipodi:namedview
     id="namedview7"
     pagecolor="#ffffff"
     bordercolor="#000000"
     borderopacity="0.25"
     inkscape:showpageshadow="2"
     inkscape:pageopacity="0.0"
     inkscape:pagecheckerboard="0"
     inkscape:deskcolor="#d1d1d1"
     inkscape:document-units="mm"
     showgrid="false"
     inkscape:zoom="0.72515432"
     inkscape:cx="48.955097"
     inkscape:cy="3.447542"
     inkscape:window-width="1920"
     inkscape:window-height="1001"
     inkscape:window-x="-9"
     inkscape:window-y="-9"
     inkscape:window-maximized="1"
     inkscape:current-layer="layer1" /><defs
     id="defs2" /><g
     inkscape:label="Layer 1"
     inkscape:groupmode="layer"
     id="layer1"
     transform="translate(-92.451022,-19.294574)"><path
       fill="#000000"
       fill-opacity="0"
       d="M -1.113555,17.904297 H 188.49408 V 112.83485 H -1.113555 Z"
       fill-rule="evenodd"
       id="path135"
       style="stroke:none;stroke-width:0.264583;stroke-linecap:square;stroke-miterlimit:10" /><path
       fill="#212425"
       d="m 2.7031117,57.940406 v 0 c 0,-21.343503 17.3023293,-38.645832 38.6458333,-38.645832 v 0 c 10.249511,0 20.079229,4.071603 27.32673,11.319102 7.247498,7.247499 11.319099,17.077219 11.319099,27.32673 v 0 c 0,21.343504 -17.302326,38.645835 -38.645832,38.645835 v 0 c -21.343503,0 -38.6458309,-17.302331 -38.6458303,-38.645835 z"
       fill-rule="evenodd"
       id="path173"
       style="stroke:none;stroke-width:0.264583;stroke-linecap:square;stroke-miterlimit:10" /><path
       fill="#edd600"
       d="m 12.998944,57.940406 v 0 c 0,-15.65727 12.692727,-28.349998 28.350001,-28.349998 v 0 c 7.518889,0 14.729822,2.986867 20.046479,8.303522 5.316653,5.316657 8.303519,12.527589 8.303519,20.046476 v 0 c 0,15.657272 -12.692727,28.350001 -28.349998,28.350001 v 0 c -15.657274,0 -28.350002,-12.692729 -28.350001,-28.350001 z"
       fill-rule="evenodd"
       id="path175"
       style="stroke:none;stroke-width:0.264583;stroke-linecap:square;stroke-miterlimit:10" /><path
       fill="#212425"
       d="m 92.451022,57.940406 v 0 c 0,-21.343503 17.302328,-38.645832 38.645828,-38.645832 v 0 c 10.24951,0 20.07925,4.071603 27.32674,11.319102 7.2475,7.247499 11.3191,17.077219 11.3191,27.32673 v 0 c 0,21.343504 -17.30233,38.645835 -38.64584,38.645835 v 0 c -21.3435,0 -38.645828,-17.302331 -38.645828,-38.645835 z"
       fill-rule="evenodd"
       id="path177"
       style="stroke:none;stroke-width:0.264583;stroke-linecap:square;stroke-miterlimit:10" /><path
       fill="#fef6dd"
       d="m 102.74686,57.940406 v 0 c 0,-15.65727 12.69272,-28.349998 28.35,-28.349998 v 0 c 7.51889,0 14.72982,2.986867 20.04647,8.303522 5.31667,5.316657 8.30353,12.527589 8.30353,20.046476 v 0 c 0,15.657272 -12.69273,28.350001 -28.35,28.350001 v 0 c -15.65728,0 -28.35,-12.692729 -28.35,-28.350001 z"
       fill-rule="evenodd"
       id="path179"
       style="stroke:none;stroke-width:0.264583;stroke-linecap:square;stroke-miterlimit:10" /></g></svg>
